<svg width="118" height="28" viewBox="0 0 118 28" fill="none" xmlns="http://www.w3.org/2000/svg">
<path d="M67.3451 6.25168L69.1432 21H66.5317L65.3544 11.0893L61.373 19.3304H59.2539L55.2511 11.1107L54.0524 21H51.4409L53.239 6.25168H55.5079L60.3027 16.3978L65.0761 6.25168H67.3451Z" fill="white"/>
<path d="M77.3781 14.9423V18.6668H84.0566V21H74.788V6.25168H83.8425V8.58486H77.3781V12.5663H83.0291V14.9423H77.3781Z" fill="white"/>
<path d="M97.9549 16.0982V6.25168H100.566V21H98.1903L92.3038 11.0679V21H89.6924V6.25168H92.154L97.9549 16.0982Z" fill="white"/>
<path d="M112.395 21.2569C109.419 21.2569 106.829 19.2448 106.829 15.8627V6.25168H109.441V15.7557C109.441 17.8534 110.832 18.7738 112.395 18.7738C113.936 18.7738 115.327 17.8534 115.327 15.7557V6.25168H117.939V15.8627C117.939 19.2448 115.349 21.2569 112.395 21.2569Z" fill="white"/>
<path d="M27.3954 5.86619C28.8816 5.86619 30.0863 4.66143 30.0863 3.17528C30.0863 1.68914 28.8816 0.484375 27.3954 0.484375C25.9093 0.484375 24.7045 1.68914 24.7045 3.17528C24.7045 4.66143 25.9093 5.86619 27.3954 5.86619Z" fill="white"/>
<path d="M27.3954 5.86619C28.8816 5.86619 30.0863 4.66143 30.0863 3.17528C30.0863 1.68914 28.8816 0.484375 27.3954 0.484375C25.9093 0.484375 24.7045 1.68914 24.7045 3.17528C24.7045 4.66143 25.9093 5.86619 27.3954 5.86619Z" fill="white"/>
<path d="M27.3954 5.86619C28.8816 5.86619 30.0863 4.66143 30.0863 3.17528C30.0863 1.68914 28.8816 0.484375 27.3954 0.484375C25.9093 0.484375 24.7045 1.68914 24.7045 3.17528C24.7045 4.66143 25.9093 5.86619 27.3954 5.86619Z" fill="white"/>
<path d="M15.2863 5.86619C16.7725 5.86619 17.9772 4.66143 17.9772 3.17528C17.9772 1.68914 16.7725 0.484375 15.2863 0.484375C13.8002 0.484375 12.5954 1.68914 12.5954 3.17528C12.5954 4.66143 13.8002 5.86619 15.2863 5.86619Z" fill="white"/>
<path d="M15.2863 5.86619C16.7725 5.86619 17.9772 4.66143 17.9772 3.17528C17.9772 1.68914 16.7725 0.484375 15.2863 0.484375C13.8002 0.484375 12.5954 1.68914 12.5954 3.17528C12.5954 4.66143 13.8002 5.86619 15.2863 5.86619Z" fill="white"/>
<path d="M15.2863 5.86619C16.7725 5.86619 17.9772 4.66143 17.9772 3.17528C17.9772 1.68914 16.7725 0.484375 15.2863 0.484375C13.8002 0.484375 12.5954 1.68914 12.5954 3.17528C12.5954 4.66143 13.8002 5.86619 15.2863 5.86619Z" fill="white"/>
<path d="M3.17735 5.86619C4.6635 5.86619 5.86826 4.66143 5.86826 3.17528C5.86826 1.68914 4.6635 0.484375 3.17735 0.484375C1.6912 0.484375 0.486438 1.68914 0.486438 3.17528C0.486438 4.66143 1.6912 5.86619 3.17735 5.86619Z" fill="white"/>
<path d="M3.17735 5.86619C4.6635 5.86619 5.86826 4.66143 5.86826 3.17528C5.86826 1.68914 4.6635 0.484375 3.17735 0.484375C1.6912 0.484375 0.486438 1.68914 0.486438 3.17528C0.486438 4.66143 1.6912 5.86619 3.17735 5.86619Z" fill="white"/>
<path d="M3.17735 5.86619C4.6635 5.86619 5.86826 4.66143 5.86826 3.17528C5.86826 1.68914 4.6635 0.484375 3.17735 0.484375C1.6912 0.484375 0.486438 1.68914 0.486438 3.17528C0.486438 4.66143 1.6912 5.86619 3.17735 5.86619Z" fill="white"/>
<path d="M27.3954 16.6298C28.8816 16.6298 30.0863 15.4251 30.0863 13.9389C30.0863 12.4528 28.8816 11.248 27.3954 11.248C25.9093 11.248 24.7045 12.4528 24.7045 13.9389C24.7045 15.4251 25.9093 16.6298 27.3954 16.6298Z" fill="white"/>
<path d="M27.3954 16.6298C28.8816 16.6298 30.0863 15.4251 30.0863 13.9389C30.0863 12.4528 28.8816 11.248 27.3954 11.248C25.9093 11.248 24.7045 12.4528 24.7045 13.9389C24.7045 15.4251 25.9093 16.6298 27.3954 16.6298Z" fill="white"/>
<path d="M27.3954 16.6298C28.8816 16.6298 30.0863 15.4251 30.0863 13.9389C30.0863 12.4528 28.8816 11.248 27.3954 11.248C25.9093 11.248 24.7045 12.4528 24.7045 13.9389C24.7045 15.4251 25.9093 16.6298 27.3954 16.6298Z" fill="white"/>
<path d="M15.2863 16.6298C16.7725 16.6298 17.9772 15.4251 17.9772 13.9389C17.9772 12.4528 16.7725 11.248 15.2863 11.248C13.8002 11.248 12.5954 12.4528 12.5954 13.9389C12.5954 15.4251 13.8002 16.6298 15.2863 16.6298Z" fill="white"/>
<path d="M15.2863 16.6298C16.7725 16.6298 17.9772 15.4251 17.9772 13.9389C17.9772 12.4528 16.7725 11.248 15.2863 11.248C13.8002 11.248 12.5954 12.4528 12.5954 13.9389C12.5954 15.4251 13.8002 16.6298 15.2863 16.6298Z" fill="white"/>
<path d="M15.2863 16.6298C16.7725 16.6298 17.9772 15.4251 17.9772 13.9389C17.9772 12.4528 16.7725 11.248 15.2863 11.248C13.8002 11.248 12.5954 12.4528 12.5954 13.9389C12.5954 15.4251 13.8002 16.6298 15.2863 16.6298Z" fill="white"/>
<path d="M3.17724 16.6298C4.66339 16.6298 5.86815 15.4251 5.86815 13.9389C5.86815 12.4528 4.66339 11.248 3.17724 11.248C1.69109 11.248 0.486328 12.4528 0.486328 13.9389C0.486328 15.4251 1.69109 16.6298 3.17724 16.6298Z" fill="white"/>
<path d="M3.17724 16.6298C4.66339 16.6298 5.86815 15.4251 5.86815 13.9389C5.86815 12.4528 4.66339 11.248 3.17724 11.248C1.69109 11.248 0.486328 12.4528 0.486328 13.9389C0.486328 15.4251 1.69109 16.6298 3.17724 16.6298Z" fill="white"/>
<path d="M3.17724 16.6298C4.66339 16.6298 5.86815 15.4251 5.86815 13.9389C5.86815 12.4528 4.66339 11.248 3.17724 11.248C1.69109 11.248 0.486328 12.4528 0.486328 13.9389C0.486328 15.4251 1.69109 16.6298 3.17724 16.6298Z" fill="white"/>
<path d="M27.3954 27.3935C28.8816 27.3935 30.0863 26.1887 30.0863 24.7026C30.0863 23.2164 28.8816 22.0116 27.3954 22.0116C25.9093 22.0116 24.7045 23.2164 24.7045 24.7026C24.7045 26.1887 25.9093 27.3935 27.3954 27.3935Z" fill="white"/>
<path d="M27.3954 27.3935C28.8816 27.3935 30.0863 26.1887 30.0863 24.7026C30.0863 23.2164 28.8816 22.0116 27.3954 22.0116C25.9093 22.0116 24.7045 23.2164 24.7045 24.7026C24.7045 26.1887 25.9093 27.3935 27.3954 27.3935Z" fill="white"/>
<path d="M27.3954 27.3935C28.8816 27.3935 30.0863 26.1887 30.0863 24.7026C30.0863 23.2164 28.8816 22.0116 27.3954 22.0116C25.9093 22.0116 24.7045 23.2164 24.7045 24.7026C24.7045 26.1887 25.9093 27.3935 27.3954 27.3935Z" fill="white"/>
<path d="M15.2863 27.3935C16.7725 27.3935 17.9772 26.1887 17.9772 24.7026C17.9772 23.2164 16.7725 22.0116 15.2863 22.0116C13.8002 22.0116 12.5954 23.2164 12.5954 24.7026C12.5954 26.1887 13.8002 27.3935 15.2863 27.3935Z" fill="white"/>
<path d="M15.2863 27.3935C16.7725 27.3935 17.9772 26.1887 17.9772 24.7026C17.9772 23.2164 16.7725 22.0116 15.2863 22.0116C13.8002 22.0116 12.5954 23.2164 12.5954 24.7026C12.5954 26.1887 13.8002 27.3935 15.2863 27.3935Z" fill="white"/>
<path d="M15.2863 27.3935C16.7725 27.3935 17.9772 26.1887 17.9772 24.7026C17.9772 23.2164 16.7725 22.0116 15.2863 22.0116C13.8002 22.0116 12.5954 23.2164 12.5954 24.7026C12.5954 26.1887 13.8002 27.3935 15.2863 27.3935Z" fill="white"/>
<path d="M3.17724 27.3935C4.66339 27.3935 5.86815 26.1887 5.86815 24.7026C5.86815 23.2164 4.66339 22.0116 3.17724 22.0116C1.69109 22.0116 0.486328 23.2164 0.486328 24.7026C0.486328 26.1887 1.69109 27.3935 3.17724 27.3935Z" fill="white"/>
<path d="M3.17724 27.3935C4.66339 27.3935 5.86815 26.1887 5.86815 24.7026C5.86815 23.2164 4.66339 22.0116 3.17724 22.0116C1.69109 22.0116 0.486328 23.2164 0.486328 24.7026C0.486328 26.1887 1.69109 27.3935 3.17724 27.3935Z" fill="white"/>
<path d="M3.17724 27.3935C4.66339 27.3935 5.86815 26.1887 5.86815 24.7026C5.86815 23.2164 4.66339 22.0116 3.17724 22.0116C1.69109 22.0116 0.486328 23.2164 0.486328 24.7026C0.486328 26.1887 1.69109 27.3935 3.17724 27.3935Z" fill="white"/>
</svg>