<svg width="16" height="16" viewBox="0 0 20 20" fill="none" xmlns="http://www.w3.org/2000/svg">
			<path d="M15.0373 11.1293C14.7705 11.1282 14.5149 11.0223 14.3255 10.8345C14.1362 10.644 14.0299 10.3863 14.0299 10.1177C14.0299 9.84908 14.1362 9.59139 14.3255 9.40089L16.481 7.24543C16.6701 7.05658 16.8201 6.83231 16.9224 6.58545C17.0247 6.33859 17.0774 6.07399 17.0774 5.80676C17.0774 5.53953 17.0247 5.27493 16.9224 5.02807C16.8201 4.78121 16.6701 4.55695 16.481 4.36809L15.0373 2.92434C14.6484 2.55682 14.1336 2.35205 13.5986 2.35205C13.0635 2.35205 12.5488 2.55682 12.1599 2.92434L10.0045 5.0798C9.80956 5.23574 9.56412 5.31453 9.31488 5.30118C9.06564 5.28783 8.83002 5.18326 8.6529 5.0074C8.47578 4.83153 8.36953 4.59666 8.35441 4.34752C8.33928 4.09838 8.41633 3.85238 8.57087 3.65638L10.7263 1.50092C11.5017 0.761283 12.5321 0.348633 13.6037 0.348633C14.6752 0.348633 15.7056 0.761283 16.481 1.50092L17.9146 2.93451C18.2927 3.31222 18.5927 3.76075 18.7974 4.25446C19.002 4.74818 19.1074 5.27739 19.1074 5.81184C19.1074 6.3463 19.002 6.87551 18.7974 7.36923C18.5927 7.86294 18.2927 8.31147 17.9146 8.68918L15.749 10.8345C15.5596 11.0223 15.304 11.1282 15.0373 11.1293Z" fill="white"></path>
			<path d="M5.69363 19.2121C5.1594 19.2125 4.63032 19.1077 4.13662 18.9035C3.64291 18.6994 3.19426 18.4 2.8163 18.0225L1.38271 16.5889C1.00458 16.2112 0.704613 15.7627 0.499949 15.269C0.295285 14.7752 0.189941 14.246 0.189941 13.7116C0.189941 13.1771 0.295285 12.6479 0.499949 12.1542C0.704613 11.6605 1.00458 11.212 1.38271 10.8342L3.54834 8.67878C3.74434 8.52424 3.99034 8.44719 4.23948 8.46232C4.48862 8.47744 4.72349 8.58369 4.89935 8.76081C5.07522 8.93793 5.17978 9.17355 5.19313 9.42279C5.20649 9.67203 5.12769 9.91747 4.97176 10.1124L2.8163 12.2678C2.62723 12.4567 2.47725 12.6809 2.37491 12.9278C2.27258 13.1747 2.21991 13.4393 2.21991 13.7065C2.21991 13.9737 2.27258 14.2383 2.37491 14.4852C2.47725 14.732 2.62723 14.9563 2.8163 15.1452L4.26005 16.5889C4.6489 16.9564 5.16366 17.1612 5.69871 17.1612C6.23377 17.1612 6.74853 16.9564 7.13738 16.5889L9.29284 14.4335C9.38156 14.3209 9.49307 14.2284 9.62004 14.162C9.74702 14.0956 9.88659 14.0568 10.0296 14.0481C10.1727 14.0394 10.3159 14.0611 10.45 14.1116C10.584 14.1622 10.7059 14.2405 10.8076 14.3415C10.9093 14.4425 10.9885 14.5638 11.04 14.6975C11.0915 14.8312 11.1142 14.9743 11.1065 15.1174C11.0988 15.2605 11.061 15.4003 10.9955 15.5277C10.93 15.6552 10.8383 15.7674 10.7264 15.8569L8.57097 18.0123C8.19383 18.3917 7.74556 18.693 7.25182 18.8988C6.75808 19.1047 6.22857 19.2112 5.69363 19.2121Z" fill="white"></path>
			<path d="M6.41544 14.007C6.28164 14.0078 6.14899 13.9821 6.02512 13.9315C5.90124 13.8809 5.78857 13.8064 5.69357 13.7121C5.59827 13.6176 5.52263 13.5052 5.47102 13.3813C5.4194 13.2574 5.39282 13.1245 5.39282 12.9903C5.39282 12.856 5.4194 12.7231 5.47102 12.5993C5.52263 12.4754 5.59827 12.3629 5.69357 12.2684L12.1701 5.802C12.3606 5.61264 12.6183 5.50635 12.8869 5.50635C13.1555 5.50635 13.4132 5.61264 13.6037 5.802C13.699 5.89652 13.7746 6.00897 13.8263 6.13287C13.8779 6.25677 13.9044 6.38966 13.9044 6.52388C13.9044 6.6581 13.8779 6.79099 13.8263 6.91489C13.7746 7.03879 13.699 7.15124 13.6037 7.24576L7.12715 13.7121C6.93778 13.9 6.68217 14.0059 6.41544 14.007Z" fill="white"></path>
		</svg>