<svg width="27" height="27" viewBox="0 0 27 27" fill="#FFF" xmlns="http://www.w3.org/2000/svg">
<path d="M26.6358 23.0855L19.7237 16.173C20.7104 14.562 21.3087 12.6847 21.3087 10.6548C21.3087 4.77162 16.5364 0 10.6543 0C4.77139 0 0 4.77162 0 10.6548C0 16.5372 4.77139 21.3097 10.6543 21.3097C12.6841 21.3097 14.5613 20.7114 16.1723 19.7281L23.0844 26.6371C23.5699 27.1227 24.3746 27.1192 24.8601 26.6371L26.6358 24.8613C27.1214 24.3757 27.1214 23.5711 26.6358 23.0855ZM10.6543 17.7581C6.73179 17.7581 3.55145 14.5776 3.55145 10.6548C3.55145 6.73212 6.73179 3.55162 10.6543 3.55162C14.5769 3.55162 17.7572 6.73212 17.7572 10.6548C17.7572 14.5776 14.5769 17.7581 10.6543 17.7581Z" fill="#FFF"/>
</svg>
